<?xml version="1.0" encoding="UTF-8"?>
<svg xmlns="http://www.w3.org/2000/svg" version="1.1" width="200" height="200" viewBox="0 0 200 200"><rect x="0" y="0" width="200" height="200" fill="#ffffff"/><g transform="scale(8)"><g transform="translate(0,0)"><path fill-rule="evenodd" d="M8 0L8 2L10 2L10 4L8 4L8 9L9 9L9 10L6 10L6 9L7 9L7 8L5 8L5 10L3 10L3 11L5 11L5 10L6 10L6 11L9 11L9 12L6 12L6 13L7 13L7 14L6 14L6 15L7 15L7 14L8 14L8 13L9 13L9 15L8 15L8 16L5 16L5 15L3 15L3 14L5 14L5 13L4 13L4 12L3 12L3 13L2 13L2 14L0 14L0 15L2 15L2 16L0 16L0 17L2 17L2 16L3 16L3 17L4 17L4 16L5 16L5 17L8 17L8 18L9 18L9 19L8 19L8 20L9 20L9 21L11 21L11 22L8 22L8 25L10 25L10 23L12 23L12 24L11 24L11 25L14 25L14 24L13 24L13 23L14 23L14 22L13 22L13 23L12 23L12 21L14 21L14 20L15 20L15 22L16 22L16 25L19 25L19 23L18 23L18 21L19 21L19 22L20 22L20 24L21 24L21 25L22 25L22 23L25 23L25 22L24 22L24 20L25 20L25 18L24 18L24 19L23 19L23 22L22 22L22 17L21 17L21 16L22 16L22 14L23 14L23 13L24 13L24 16L23 16L23 17L25 17L25 13L24 13L24 11L25 11L25 8L23 8L23 9L24 9L24 11L23 11L23 10L22 10L22 9L21 9L21 8L15 8L15 9L16 9L16 10L14 10L14 8L13 8L13 6L12 6L12 4L11 4L11 3L14 3L14 7L15 7L15 5L16 5L16 7L17 7L17 5L16 5L16 2L17 2L17 1L16 1L16 0L15 0L15 1L16 1L16 2L13 2L13 1L14 1L14 0L11 0L11 1L9 1L9 0ZM11 1L11 2L12 2L12 1ZM9 5L9 8L10 8L10 6L11 6L11 7L12 7L12 6L11 6L11 5ZM0 8L0 9L3 9L3 8ZM11 8L11 10L9 10L9 11L10 11L10 14L12 14L12 12L14 12L14 13L13 13L13 14L14 14L14 15L12 15L12 17L11 17L11 16L10 16L10 15L9 15L9 16L8 16L8 17L9 17L9 18L10 18L10 19L9 19L9 20L10 20L10 19L11 19L11 20L14 20L14 19L16 19L16 18L14 18L14 17L15 17L15 14L14 14L14 13L15 13L15 12L17 12L17 13L16 13L16 14L19 14L19 15L20 15L20 16L21 16L21 15L20 15L20 14L21 14L21 11L22 11L22 13L23 13L23 11L22 11L22 10L21 10L21 9L19 9L19 11L15 11L15 12L14 12L14 11L11 11L11 10L13 10L13 9L12 9L12 8ZM17 9L17 10L18 10L18 9ZM20 10L20 11L19 11L19 12L18 12L18 13L19 13L19 14L20 14L20 11L21 11L21 10ZM0 11L0 12L2 12L2 11ZM16 15L16 16L17 16L17 15ZM13 16L13 17L12 17L12 18L11 18L11 19L14 19L14 18L13 18L13 17L14 17L14 16ZM17 17L17 20L20 20L20 17ZM18 18L18 19L19 19L19 18ZM16 21L16 22L17 22L17 21ZM21 22L21 23L22 23L22 22ZM17 23L17 24L18 24L18 23ZM24 24L24 25L25 25L25 24ZM0 0L0 7L7 7L7 0ZM1 1L1 6L6 6L6 1ZM2 2L2 5L5 5L5 2ZM18 0L18 7L25 7L25 0ZM19 1L19 6L24 6L24 1ZM20 2L20 5L23 5L23 2ZM0 18L0 25L7 25L7 18ZM1 19L1 24L6 24L6 19ZM2 20L2 23L5 23L5 20Z" fill="#000000"/></g></g></svg>
